<svg width="940" height="449" viewBox="0 0 940 449" fill="none" xmlns="http://www.w3.org/2000/svg">
<g clip-path="url(#clip0_2_5347)">
<path d="M905 0H35C15.67 0 0 15.67 0 35V414C0 433.33 15.67 449 35 449H905C924.33 449 940 433.33 940 414V35C940 15.67 924.33 0 905 0Z" fill="#2870ED"/>
<path d="M242.53 150.16C263.28 150.16 269.93 153.41 269.93 161.46V169.67H242.53C227.2 169.67 222.4 176.33 222.4 200.48C222.4 224.63 227.2 231.29 242.53 231.29H269.93V239.5C269.93 247.55 263.27 250.8 242.53 250.8C214.2 250.8 199.34 235.63 199.34 200.49C199.34 165.35 214.2 150.17 242.53 150.17V150.16ZM238.97 145.36C237.11 145.36 236.03 144.9 234.17 142.73L221.17 126.94C220.55 126.17 220.55 125.24 220.55 124.62H229.53C231.54 124.62 232.47 125.08 234.64 126.94L242.07 133.29L249.35 126.94C251.67 125.08 252.45 124.62 254.61 124.62H263.43C263.43 125.24 263.43 126.17 262.81 126.94L249.81 142.73C247.95 144.9 246.87 145.36 244.86 145.36H238.98H238.97Z" fill="white"/>
<path d="M277.67 159.45C277.67 153.88 280.15 150.94 285.88 150.94H342.23V161.78C342.23 167.35 339.29 169.99 333.41 169.99H300.12V190.58H336.5V208.38H300.12V231.14H343V241.98C343 247.55 340.06 250.03 334.33 250.03H285.87C280.14 250.03 277.66 247.09 277.66 241.52V159.47L277.67 159.45Z" fill="white"/>
<path d="M382.48 150.16C402.45 150.16 413.91 152.33 413.91 161.15V169.66H384.65C375.98 169.66 372.57 172.29 372.57 177.25C372.57 190.72 419.17 188.4 419.17 221.53C419.17 237.32 409.42 250.79 381.09 250.79C363.29 250.79 348.58 248.31 348.58 239.8V231.28H382.18C391 231.28 395.34 228.49 395.34 222.77C395.34 208.22 348.9 210.39 348.9 176.64C348.9 161.78 359.43 150.17 382.5 150.17L382.48 150.16Z" fill="white"/>
<path d="M452.14 196.76L480.94 155.11C483.26 151.55 484.5 150.93 487.44 150.93H508.19C508.19 152.32 507.88 153.56 506.8 155.11L474.91 198.92L508.35 245.83C509.12 247.07 509.74 248.62 509.74 250.01H489.92C485.59 250.01 484.19 249.7 481.4 245.52L452.14 204.34V250.01H429.69V159.44C429.69 153.87 432.17 150.93 437.9 150.93H452.14V196.76Z" fill="white"/>
<path d="M564.07 150.62C568.1 150.62 569.95 151.08 570.88 154.49L596.11 246.3C596.42 247.69 596.57 249.09 596.57 250.02H578.77C574.75 250.02 573.51 249.86 572.58 246.46L567.01 225.4H539.92L534.35 246.46C533.58 249.87 532.34 250.02 528.31 250.02H510.51C510.51 249.09 510.66 247.85 510.97 246.3L536.36 154.49C537.29 151.08 539.15 150.62 543.17 150.62H564.07ZM543.63 208.37H562.98L553.69 173.85H552.92L543.63 208.37ZM561.74 143.04C559.73 145.21 558.64 145.36 556.63 145.36H547.65C547.65 144.74 547.65 143.81 548.27 143.04L561.27 127.25C563.13 125.08 564.21 124.62 566.07 124.62H574.89C576.13 124.62 576.75 125.08 576.75 125.7C576.75 126.47 576.44 127.09 575.2 128.49L561.73 143.04H561.74Z" fill="white"/>
<path d="M625.51 223.4H713.94V211.53H625.68C625.61 210.16 625.65 183.39 625.47 171.02C625.32 160.47 632.52 150.2 646.13 150.43C670.93 150.84 695.76 150.84 720.56 150.41C731.25 150.22 740.98 158.07 740.97 170.84C740.97 172.62 740.96 174.8 740.96 177.11H652.45V188.7L740.96 188.68C740.96 190.27 740.99 217.08 740.96 229.55C740.92 242.1 732.88 249.99 720.18 250C695.58 250 670.98 250 646.38 250C633.58 250 625.57 242.02 625.52 229.23C625.52 227.45 625.52 225.67 625.52 223.4" fill="white"/>
<path d="M683.34 138.04C672.88 138.04 664.42 129.42 664.48 118.84C664.53 108.44 673.03 99.99 683.41 100.02C693.78 100.04 702.26 108.53 702.28 118.92C702.3 129.48 693.81 138.06 683.34 138.05" fill="white"/>
<path d="M216.59 284.03C225.33 284.03 231.25 284.3 231.25 288.67V291.31H216.5C212.4 291.31 209.94 293.04 209.94 295.59C209.94 304.15 233.62 301.69 233.62 317.08C233.62 324.55 228.79 330.47 214.95 330.47C206.85 330.47 199.38 330.47 199.38 326.28V323.18H215.77C221.23 323.18 223.6 321.54 223.6 317.9C223.6 310.16 199.83 311.53 199.83 296.23C199.83 288.58 206.02 284.03 216.59 284.03Z" fill="white"/>
<path d="M249.64 343.67H240.08V284.48H245.09C248.46 284.48 249.64 286.3 249.64 288.49V289.77C252.37 286.77 256.65 284.03 262.02 284.03C273.49 284.03 278.69 292.95 278.69 307.25C278.69 321.55 273.5 330.47 262.02 330.47C256.65 330.47 252.37 327.74 249.64 324.82V343.67ZM258.66 291.58C255.11 291.58 252.1 293.04 249.64 294.95V319.45C252.1 321.36 255.1 322.82 258.66 322.82C266.04 322.82 268.77 317.45 268.77 307.25C268.77 297.05 266.04 291.59 258.66 291.59V291.58Z" fill="white"/>
<path d="M284.15 307.25C284.15 294.5 288.79 284.03 304.18 284.03C319.57 284.03 324.21 294.5 324.21 307.25C324.21 320 319.57 330.47 304.18 330.47C288.79 330.47 284.15 320 284.15 307.25ZM314.38 307.25C314.38 296.69 312.01 290.86 304.18 290.86C296.35 290.86 294.07 296.69 294.07 307.25C294.07 317.81 296.35 323.64 304.18 323.64C312.01 323.64 314.38 317.9 314.38 307.25Z" fill="white"/>
<path d="M341.25 280.84C340.07 280.84 339.43 280.48 338.34 279.29L330.69 270.37C330.23 269.91 330.23 269.37 330.23 269H334.42C335.7 269 336.24 269.27 337.52 270.37L342.53 274.65L347.63 270.37C348.9 269.28 349.45 269 350.64 269H354.83C354.83 269.36 354.83 269.91 354.47 270.37L346.73 279.29C345.64 280.47 345 280.84 343.82 280.84H341.27H341.25ZM331.78 330.01V284.48H336.79C339.89 284.48 341.16 286.76 341.34 290.22C345.07 285.39 349.81 284.03 353.45 284.03C355.09 284.03 356.73 284.49 356.73 286.31V293.41H354.45C347.44 293.41 344.07 294.87 341.34 296.78V330.02H331.78V330.01Z" fill="white"/>
<path d="M370.12 279.75H360.56V274.47C360.56 271.56 361.65 269.92 364.66 269.92H370.12V279.75ZM360.56 284.49H365.93C368.94 284.49 370.12 286.13 370.12 289.04V330.02H360.56V284.49Z" fill="white"/>
<path d="M391.7 284.48H401.9V291.58H391.7V318.08C391.7 321.63 392.16 323 395.25 323H401.9V325.37C401.9 329.19 398.62 330.29 393.43 330.29C383.05 330.29 382.14 324.74 382.14 318.09V291.59H376.13V286.31L382.14 284.49L385.6 277.2C386.6 275.29 387.33 274.47 389.06 274.47H391.7V284.49V284.48Z" fill="white"/>
<path d="M440.14 323.18V325.73C440.14 329.46 435.13 330.47 424.11 330.47C408.81 330.47 404.08 320 404.08 307.25C404.08 294.5 409.09 284.03 424.02 284.03C436.04 284.03 442.32 290.95 442.32 301.24C442.32 303.52 442.32 305.25 441.86 309.8H413.99C413.99 319.54 417.63 323.19 425.19 323.19H440.12L440.14 323.18ZM432.67 303.42C432.76 302.6 432.76 300.96 432.76 299.96C432.76 295.86 431.03 290.85 424.11 290.85C417.74 290.85 414.37 294.49 414 303.42H432.67Z" fill="white"/>
<path d="M459.17 330.01H449.61V274.46C449.61 271.55 450.7 269.91 453.71 269.91H459.17V330.01Z" fill="white"/>
<path d="M469.19 330.01V284.48H474.2C477.57 284.48 478.75 286.21 478.75 288.4V289.77C482.67 285.67 487.4 284.03 492.14 284.03C501.61 284.03 506.16 289.77 506.16 298.15V330.02H496.6V298.6C496.6 293.59 493.41 291.59 488.31 291.59C484.85 291.59 481.3 293.05 478.75 294.96V330.02H469.19V330.01Z" fill="white"/>
<path d="M545.68 330.01C542.4 330.01 541.13 328.28 541.13 326.09V324.81C537.21 328.91 532.11 330.46 527.83 330.46C519.18 330.46 513.81 325.45 513.81 317.71C513.81 306.33 526.29 303.23 541.13 302.59V298.77C541.13 293.03 537.03 291.3 531.2 291.3H517.18V288.66C517.18 284.29 522.64 284.02 532.75 284.02C544.04 284.02 550.69 288.76 550.69 298.32V330.01H545.68ZM541.13 308.34C528.65 308.52 523.92 310.98 523.92 316.35C523.92 321.09 527.38 322.72 532.02 322.72C535.39 322.72 538.85 321.45 541.13 319.44V308.33V308.34Z" fill="white"/>
</g>
<defs>
<clipPath id="clip0_2_5347">
<rect width="940" height="449" fill="white"/>
</clipPath>
</defs>
</svg>
